<svg aria-roledescription="er" viewBox="0 0 946.4375 474" style="max-width: 946.438px; background-color: white;" xmlns:xlink="http://www.w3.org/1999/xlink" xmlns="http://www.w3.org/2000/svg" width="100%" id="mermaid-0"><style>#mermaid-0{font-family:"trebuchet ms",verdana,arial,sans-serif;font-size:16px;fill:#000000;}#mermaid-0 .error-icon{fill:#552222;}#mermaid-0 .error-text{fill:#552222;stroke:#552222;}#mermaid-0 .edge-thickness-normal{stroke-width:2px;}#mermaid-0 .edge-thickness-thick{stroke-width:3.5px;}#mermaid-0 .edge-pattern-solid{stroke-dasharray:0;}#mermaid-0 .edge-pattern-dashed{stroke-dasharray:3;}#mermaid-0 .edge-pattern-dotted{stroke-dasharray:2;}#mermaid-0 .marker{fill:#000000;stroke:#000000;}#mermaid-0 .marker.cross{stroke:#000000;}#mermaid-0 svg{font-family:"trebuchet ms",verdana,arial,sans-serif;font-size:16px;}#mermaid-0 .entityBox{fill:#cde498;stroke:#13540c;}#mermaid-0 .attributeBoxOdd{fill:#ffffff;stroke:#13540c;}#mermaid-0 .attributeBoxEven{fill:#f2f2f2;stroke:#13540c;}#mermaid-0 .relationshipLabelBox{fill:hsl(78.1578947368, 58.4615384615%, 84.5098039216%);opacity:0.7;background-color:hsl(78.1578947368, 58.4615384615%, 84.5098039216%);}#mermaid-0 .relationshipLabelBox rect{opacity:0.5;}#mermaid-0 .relationshipLine{stroke:#000000;}#mermaid-0 .entityTitleText{text-anchor:middle;font-size:18px;fill:#000000;}#mermaid-0 :root{--mermaid-font-family:"trebuchet ms",verdana,arial,sans-serif;}</style><g/><defs><marker orient="auto" markerHeight="18" markerWidth="18" refY="9" refX="0" id="ONLY_ONE_START"><path d="M9,0 L9,18 M15,0 L15,18" fill="none" stroke="gray"/></marker></defs><defs><marker orient="auto" markerHeight="18" markerWidth="18" refY="9" refX="18" id="ONLY_ONE_END"><path d="M3,0 L3,18 M9,0 L9,18" fill="none" stroke="gray"/></marker></defs><defs><marker orient="auto" markerHeight="18" markerWidth="30" refY="9" refX="0" id="ZERO_OR_ONE_START"><circle r="6" cy="9" cx="21" fill="white" stroke="gray"/><path d="M9,0 L9,18" fill="none" stroke="gray"/></marker></defs><defs><marker orient="auto" markerHeight="18" markerWidth="30" refY="9" refX="30" id="ZERO_OR_ONE_END"><circle r="6" cy="9" cx="9" fill="white" stroke="gray"/><path d="M21,0 L21,18" fill="none" stroke="gray"/></marker></defs><defs><marker orient="auto" markerHeight="36" markerWidth="45" refY="18" refX="18" id="ONE_OR_MORE_START"><path d="M0,18 Q 18,0 36,18 Q 18,36 0,18 M42,9 L42,27" fill="none" stroke="gray"/></marker></defs><defs><marker orient="auto" markerHeight="36" markerWidth="45" refY="18" refX="27" id="ONE_OR_MORE_END"><path d="M3,9 L3,27 M9,18 Q27,0 45,18 Q27,36 9,18" fill="none" stroke="gray"/></marker></defs><defs><marker orient="auto" markerHeight="36" markerWidth="57" refY="18" refX="18" id="ZERO_OR_MORE_START"><circle r="6" cy="18" cx="48" fill="white" stroke="gray"/><path d="M0,18 Q18,0 36,18 Q18,36 0,18" fill="none" stroke="gray"/></marker></defs><defs><marker orient="auto" markerHeight="36" markerWidth="57" refY="18" refX="39" id="ZERO_OR_MORE_END"><circle r="6" cy="18" cx="9" fill="white" stroke="gray"/><path d="M21,18 Q39,0 57,18 Q39,36 21,18" fill="none" stroke="gray"/></marker></defs><path style="stroke: gray; fill: none;" marker-start="url(#ZERO_OR_MORE_START)" marker-end="url(#ZERO_OR_ONE_END)" d="M317.755859375,114.6382391273464L277.5042317708333,129.53186593945534C237.25260416666666,144.42549275156426,156.74934895833334,174.21274637578213,116.49772135416667,206.60637318789108C76.24609375,239,76.24609375,274,76.24609375,291.5L76.24609375,309" class="er relationshipLine"/><path style="stroke: gray; fill: none;" marker-start="url(#ZERO_OR_MORE_START)" marker-end="url(#ZERO_OR_ONE_END)" d="M329.48320646367523,154L321.6513699697294,162.33333333333334C313.8195334757835,170.66666666666666,298.15586048789174,187.33333333333334,290.3240239939459,215C282.4921875,242.66666666666666,282.4921875,281.3333333333333,282.4921875,300.6666666666667L282.4921875,320" class="er relationshipLine"/><path style="stroke: gray; fill: none;" marker-start="url(#ZERO_OR_MORE_START)" marker-end="url(#ZERO_OR_ONE_END)" d="M455.41913728632477,154L463.25097378027067,162.33333333333334C471.08281027421646,170.66666666666666,486.74648326210826,187.33333333333334,494.5783197560541,213.16666666666666C502.41015625,239,502.41015625,274,502.41015625,291.5L502.41015625,309" class="er relationshipLine"/><path style="stroke: gray; fill: none;" marker-start="url(#ZERO_OR_MORE_START)" marker-end="url(#ZERO_OR_ONE_END)" d="M467.146484375,108.47621538860278L522.5192057291666,124.39684615716898C577.8919270833334,140.31747692573518,688.6373697916666,172.1587384628676,744.0100911458334,196.4127025647671C799.3828125,220.66666666666666,799.3828125,237.33333333333334,799.3828125,245.66666666666666L799.3828125,254" class="er relationshipLine"/><g transform="translate(317.755859375,20 )" id="entity-registers-523972b0-4acd-45df-b56e-849eca590035"><rect height="134" width="149.390625" y="0" x="0" class="er entityBox"/><text style="dominant-baseline: middle; text-anchor: middle; font-size: 12px;" transform="translate(74.6953125,12)" y="0" x="0" id="text-entity-registers-523972b0-4acd-45df-b56e-849eca590035" class="er entityLabel">registers</text><rect height="22" width="53.6640625" y="24" x="0" class="er attributeBoxOdd"/><text style="dominant-baseline: middle; font-size: 10.2px;" transform="translate(5,35)" y="0" x="0" id="text-entity-registers-523972b0-4acd-45df-b56e-849eca590035-attr-1-type" class="er entityLabel">Int</text><rect height="22" width="74.1640625" y="24" x="53.6640625" class="er attributeBoxOdd"/><text style="dominant-baseline: middle; font-size: 10.2px;" transform="translate(58.6640625,35)" y="0" x="0" id="text-entity-registers-523972b0-4acd-45df-b56e-849eca590035-attr-1-name" class="er entityLabel">id</text><rect height="22" width="21.5625" y="24" x="127.828125" class="er attributeBoxOdd"/><text style="dominant-baseline: middle; font-size: 10.2px;" transform="translate(132.828125,35)" y="0" x="0" id="text-entity-registers-523972b0-4acd-45df-b56e-849eca590035-attr-1-key" class="er entityLabel">PK</text><rect height="22" width="53.6640625" y="46" x="0" class="er attributeBoxEven"/><text style="dominant-baseline: middle; font-size: 10.2px;" transform="translate(5,57)" y="0" x="0" id="text-entity-registers-523972b0-4acd-45df-b56e-849eca590035-attr-2-type" class="er entityLabel">String</text><rect height="22" width="74.1640625" y="46" x="53.6640625" class="er attributeBoxEven"/><text style="dominant-baseline: middle; font-size: 10.2px;" transform="translate(58.6640625,57)" y="0" x="0" id="text-entity-registers-523972b0-4acd-45df-b56e-849eca590035-attr-2-name" class="er entityLabel">title</text><rect height="22" width="21.5625" y="46" x="127.828125" class="er attributeBoxEven"/><text style="dominant-baseline: middle; font-size: 10.2px;" transform="translate(132.828125,57)" y="0" x="0" id="text-entity-registers-523972b0-4acd-45df-b56e-849eca590035-attr-2-key" class="er entityLabel"/><rect height="22" width="53.6640625" y="68" x="0" class="er attributeBoxOdd"/><text style="dominant-baseline: middle; font-size: 10.2px;" transform="translate(5,79)" y="0" x="0" id="text-entity-registers-523972b0-4acd-45df-b56e-849eca590035-attr-3-type" class="er entityLabel">Float</text><rect height="22" width="74.1640625" y="68" x="53.6640625" class="er attributeBoxOdd"/><text style="dominant-baseline: middle; font-size: 10.2px;" transform="translate(58.6640625,79)" y="0" x="0" id="text-entity-registers-523972b0-4acd-45df-b56e-849eca590035-attr-3-name" class="er entityLabel">value</text><rect height="22" width="21.5625" y="68" x="127.828125" class="er attributeBoxOdd"/><text style="dominant-baseline: middle; font-size: 10.2px;" transform="translate(132.828125,79)" y="0" x="0" id="text-entity-registers-523972b0-4acd-45df-b56e-849eca590035-attr-3-key" class="er entityLabel"/><rect height="22" width="53.6640625" y="90" x="0" class="er attributeBoxEven"/><text style="dominant-baseline: middle; font-size: 10.2px;" transform="translate(5,101)" y="0" x="0" id="text-entity-registers-523972b0-4acd-45df-b56e-849eca590035-attr-4-type" class="er entityLabel">Boolean</text><rect height="22" width="74.1640625" y="90" x="53.6640625" class="er attributeBoxEven"/><text style="dominant-baseline: middle; font-size: 10.2px;" transform="translate(58.6640625,101)" y="0" x="0" id="text-entity-registers-523972b0-4acd-45df-b56e-849eca590035-attr-4-name" class="er entityLabel">pendingStatus</text><rect height="22" width="21.5625" y="90" x="127.828125" class="er attributeBoxEven"/><text style="dominant-baseline: middle; font-size: 10.2px;" transform="translate(132.828125,101)" y="0" x="0" id="text-entity-registers-523972b0-4acd-45df-b56e-849eca590035-attr-4-key" class="er entityLabel"/><rect height="22" width="53.6640625" y="112" x="0" class="er attributeBoxOdd"/><text style="dominant-baseline: middle; font-size: 10.2px;" transform="translate(5,123)" y="0" x="0" id="text-entity-registers-523972b0-4acd-45df-b56e-849eca590035-attr-5-type" class="er entityLabel">DateTime</text><rect height="22" width="74.1640625" y="112" x="53.6640625" class="er attributeBoxOdd"/><text style="dominant-baseline: middle; font-size: 10.2px;" transform="translate(58.6640625,123)" y="0" x="0" id="text-entity-registers-523972b0-4acd-45df-b56e-849eca590035-attr-5-name" class="er entityLabel">date</text><rect height="22" width="21.5625" y="112" x="127.828125" class="er attributeBoxOdd"/><text style="dominant-baseline: middle; font-size: 10.2px;" transform="translate(132.828125,123)" y="0" x="0" id="text-entity-registers-523972b0-4acd-45df-b56e-849eca590035-attr-5-key" class="er entityLabel"/></g><g transform="translate(20,309 )" id="entity-types-1df22d17-149c-420f-841b-afebb1112578"><rect height="90" width="112.4921875" y="0" x="0" class="er entityBox"/><text style="dominant-baseline: middle; text-anchor: middle; font-size: 12px;" transform="translate(56.24609375,12)" y="0" x="0" id="text-entity-types-1df22d17-149c-420f-841b-afebb1112578" class="er entityLabel">types</text><rect height="22" width="36.5234375" y="24" x="0" class="er attributeBoxOdd"/><text style="dominant-baseline: middle; font-size: 10.2px;" transform="translate(5,35)" y="0" x="0" id="text-entity-types-1df22d17-149c-420f-841b-afebb1112578-attr-1-type" class="er entityLabel">String</text><rect height="22" width="54.40625" y="24" x="36.5234375" class="er attributeBoxOdd"/><text style="dominant-baseline: middle; font-size: 10.2px;" transform="translate(41.5234375,35)" y="0" x="0" id="text-entity-types-1df22d17-149c-420f-841b-afebb1112578-attr-1-name" class="er entityLabel">id</text><rect height="22" width="21.5625" y="24" x="90.9296875" class="er attributeBoxOdd"/><text style="dominant-baseline: middle; font-size: 10.2px;" transform="translate(95.9296875,35)" y="0" x="0" id="text-entity-types-1df22d17-149c-420f-841b-afebb1112578-attr-1-key" class="er entityLabel">PK</text><rect height="22" width="36.5234375" y="46" x="0" class="er attributeBoxEven"/><text style="dominant-baseline: middle; font-size: 10.2px;" transform="translate(5,57)" y="0" x="0" id="text-entity-types-1df22d17-149c-420f-841b-afebb1112578-attr-2-type" class="er entityLabel">String</text><rect height="22" width="54.40625" y="46" x="36.5234375" class="er attributeBoxEven"/><text style="dominant-baseline: middle; font-size: 10.2px;" transform="translate(41.5234375,57)" y="0" x="0" id="text-entity-types-1df22d17-149c-420f-841b-afebb1112578-attr-2-name" class="er entityLabel">name</text><rect height="22" width="21.5625" y="46" x="90.9296875" class="er attributeBoxEven"/><text style="dominant-baseline: middle; font-size: 10.2px;" transform="translate(95.9296875,57)" y="0" x="0" id="text-entity-types-1df22d17-149c-420f-841b-afebb1112578-attr-2-key" class="er entityLabel"/><rect height="22" width="36.5234375" y="68" x="0" class="er attributeBoxOdd"/><text style="dominant-baseline: middle; font-size: 10.2px;" transform="translate(5,79)" y="0" x="0" id="text-entity-types-1df22d17-149c-420f-841b-afebb1112578-attr-3-type" class="er entityLabel">String</text><rect height="22" width="54.40625" y="68" x="36.5234375" class="er attributeBoxOdd"/><text style="dominant-baseline: middle; font-size: 10.2px;" transform="translate(41.5234375,79)" y="0" x="0" id="text-entity-types-1df22d17-149c-420f-841b-afebb1112578-attr-3-name" class="er entityLabel">definition</text><rect height="22" width="21.5625" y="68" x="90.9296875" class="er attributeBoxOdd"/><text style="dominant-baseline: middle; font-size: 10.2px;" transform="translate(95.9296875,79)" y="0" x="0" id="text-entity-types-1df22d17-149c-420f-841b-afebb1112578-attr-3-key" class="er entityLabel"/></g><g transform="translate(232.4921875,320 )" id="entity-categories-47509192-51f0-40ab-822e-e01dac388929"><rect height="68" width="100" y="0" x="0" class="er entityBox"/><text style="dominant-baseline: middle; text-anchor: middle; font-size: 12px;" transform="translate(50,12)" y="0" x="0" id="text-entity-categories-47509192-51f0-40ab-822e-e01dac388929" class="er entityLabel">categories</text><rect height="22" width="38.838541666666664" y="24" x="0" class="er attributeBoxOdd"/><text style="dominant-baseline: middle; font-size: 10.2px;" transform="translate(5,35)" y="0" x="0" id="text-entity-categories-47509192-51f0-40ab-822e-e01dac388929-attr-1-type" class="er entityLabel">String</text><rect height="22" width="37.283854166666664" y="24" x="38.838541666666664" class="er attributeBoxOdd"/><text style="dominant-baseline: middle; font-size: 10.2px;" transform="translate(43.838541666666664,35)" y="0" x="0" id="text-entity-categories-47509192-51f0-40ab-822e-e01dac388929-attr-1-name" class="er entityLabel">id</text><rect height="22" width="23.877604166666668" y="24" x="76.12239583333333" class="er attributeBoxOdd"/><text style="dominant-baseline: middle; font-size: 10.2px;" transform="translate(81.12239583333333,35)" y="0" x="0" id="text-entity-categories-47509192-51f0-40ab-822e-e01dac388929-attr-1-key" class="er entityLabel">PK</text><rect height="22" width="38.838541666666664" y="46" x="0" class="er attributeBoxEven"/><text style="dominant-baseline: middle; font-size: 10.2px;" transform="translate(5,57)" y="0" x="0" id="text-entity-categories-47509192-51f0-40ab-822e-e01dac388929-attr-2-type" class="er entityLabel">String</text><rect height="22" width="37.283854166666664" y="46" x="38.838541666666664" class="er attributeBoxEven"/><text style="dominant-baseline: middle; font-size: 10.2px;" transform="translate(43.838541666666664,57)" y="0" x="0" id="text-entity-categories-47509192-51f0-40ab-822e-e01dac388929-attr-2-name" class="er entityLabel">name</text><rect height="22" width="23.877604166666668" y="46" x="76.12239583333333" class="er attributeBoxEven"/><text style="dominant-baseline: middle; font-size: 10.2px;" transform="translate(81.12239583333333,57)" y="0" x="0" id="text-entity-categories-47509192-51f0-40ab-822e-e01dac388929-attr-2-key" class="er entityLabel"/></g><g transform="translate(432.4921875,309 )" id="entity-methods-6efdbc9f-11f9-43f1-b0e6-ce518f5184a6"><rect height="90" width="139.8359375" y="0" x="0" class="er entityBox"/><text style="dominant-baseline: middle; text-anchor: middle; font-size: 12px;" transform="translate(69.91796875,12)" y="0" x="0" id="text-entity-methods-6efdbc9f-11f9-43f1-b0e6-ce518f5184a6" class="er entityLabel">methods</text><rect height="22" width="36.5234375" y="24" x="0" class="er attributeBoxOdd"/><text style="dominant-baseline: middle; font-size: 10.2px;" transform="translate(5,35)" y="0" x="0" id="text-entity-methods-6efdbc9f-11f9-43f1-b0e6-ce518f5184a6-attr-1-type" class="er entityLabel">String</text><rect height="22" width="34.96875" y="24" x="36.5234375" class="er attributeBoxOdd"/><text style="dominant-baseline: middle; font-size: 10.2px;" transform="translate(41.5234375,35)" y="0" x="0" id="text-entity-methods-6efdbc9f-11f9-43f1-b0e6-ce518f5184a6-attr-1-name" class="er entityLabel">id</text><rect height="22" width="21.5625" y="24" x="71.4921875" class="er attributeBoxOdd"/><text style="dominant-baseline: middle; font-size: 10.2px;" transform="translate(76.4921875,35)" y="0" x="0" id="text-entity-methods-6efdbc9f-11f9-43f1-b0e6-ce518f5184a6-attr-1-key" class="er entityLabel">PK</text><rect height="22" width="46.78125" y="24" x="93.0546875" class="er attributeBoxOdd"/><text style="dominant-baseline: middle; font-size: 10.2px;" transform="translate(98.0546875,35)" y="0" x="0" id="text-entity-methods-6efdbc9f-11f9-43f1-b0e6-ce518f5184a6-attr-1-comment" class="er entityLabel"/><rect height="22" width="36.5234375" y="46" x="0" class="er attributeBoxEven"/><text style="dominant-baseline: middle; font-size: 10.2px;" transform="translate(5,57)" y="0" x="0" id="text-entity-methods-6efdbc9f-11f9-43f1-b0e6-ce518f5184a6-attr-2-type" class="er entityLabel">String</text><rect height="22" width="34.96875" y="46" x="36.5234375" class="er attributeBoxEven"/><text style="dominant-baseline: middle; font-size: 10.2px;" transform="translate(41.5234375,57)" y="0" x="0" id="text-entity-methods-6efdbc9f-11f9-43f1-b0e6-ce518f5184a6-attr-2-name" class="er entityLabel">name</text><rect height="22" width="21.5625" y="46" x="71.4921875" class="er attributeBoxEven"/><text style="dominant-baseline: middle; font-size: 10.2px;" transform="translate(76.4921875,57)" y="0" x="0" id="text-entity-methods-6efdbc9f-11f9-43f1-b0e6-ce518f5184a6-attr-2-key" class="er entityLabel"/><rect height="22" width="46.78125" y="46" x="93.0546875" class="er attributeBoxEven"/><text style="dominant-baseline: middle; font-size: 10.2px;" transform="translate(98.0546875,57)" y="0" x="0" id="text-entity-methods-6efdbc9f-11f9-43f1-b0e6-ce518f5184a6-attr-2-comment" class="er entityLabel"/><rect height="22" width="36.5234375" y="68" x="0" class="er attributeBoxOdd"/><text style="dominant-baseline: middle; font-size: 10.2px;" transform="translate(5,79)" y="0" x="0" id="text-entity-methods-6efdbc9f-11f9-43f1-b0e6-ce518f5184a6-attr-3-type" class="er entityLabel">String</text><rect height="22" width="34.96875" y="68" x="36.5234375" class="er attributeBoxOdd"/><text style="dominant-baseline: middle; font-size: 10.2px;" transform="translate(41.5234375,79)" y="0" x="0" id="text-entity-methods-6efdbc9f-11f9-43f1-b0e6-ce518f5184a6-attr-3-name" class="er entityLabel">bank</text><rect height="22" width="21.5625" y="68" x="71.4921875" class="er attributeBoxOdd"/><text style="dominant-baseline: middle; font-size: 10.2px;" transform="translate(76.4921875,79)" y="0" x="0" id="text-entity-methods-6efdbc9f-11f9-43f1-b0e6-ce518f5184a6-attr-3-key" class="er entityLabel"/><rect height="22" width="46.78125" y="68" x="93.0546875" class="er attributeBoxOdd"/><text style="dominant-baseline: middle; font-size: 10.2px;" transform="translate(98.0546875,79)" y="0" x="0" id="text-entity-methods-6efdbc9f-11f9-43f1-b0e6-ce518f5184a6-attr-3-comment" class="er entityLabel">nullable</text></g><g transform="translate(672.328125,254 )" id="entity-recurrencies-3d9f31a1-a22a-462c-8821-61c111100115"><rect height="200" width="254.109375" y="0" x="0" class="er entityBox"/><text style="dominant-baseline: middle; text-anchor: middle; font-size: 12px;" transform="translate(127.0546875,12)" y="0" x="0" id="text-entity-recurrencies-3d9f31a1-a22a-462c-8821-61c111100115" class="er entityLabel">recurrencies</text><rect height="22" width="53.6640625" y="24" x="0" class="er attributeBoxOdd"/><text style="dominant-baseline: middle; font-size: 10.2px;" transform="translate(5,35)" y="0" x="0" id="text-entity-recurrencies-3d9f31a1-a22a-462c-8821-61c111100115-attr-1-type" class="er entityLabel">Int</text><rect height="22" width="132.1015625" y="24" x="53.6640625" class="er attributeBoxOdd"/><text style="dominant-baseline: middle; font-size: 10.2px;" transform="translate(58.6640625,35)" y="0" x="0" id="text-entity-recurrencies-3d9f31a1-a22a-462c-8821-61c111100115-attr-1-name" class="er entityLabel">id</text><rect height="22" width="21.5625" y="24" x="185.765625" class="er attributeBoxOdd"/><text style="dominant-baseline: middle; font-size: 10.2px;" transform="translate(190.765625,35)" y="0" x="0" id="text-entity-recurrencies-3d9f31a1-a22a-462c-8821-61c111100115-attr-1-key" class="er entityLabel">PK</text><rect height="22" width="46.78125" y="24" x="207.328125" class="er attributeBoxOdd"/><text style="dominant-baseline: middle; font-size: 10.2px;" transform="translate(212.328125,35)" y="0" x="0" id="text-entity-recurrencies-3d9f31a1-a22a-462c-8821-61c111100115-attr-1-comment" class="er entityLabel"/><rect height="22" width="53.6640625" y="46" x="0" class="er attributeBoxEven"/><text style="dominant-baseline: middle; font-size: 10.2px;" transform="translate(5,57)" y="0" x="0" id="text-entity-recurrencies-3d9f31a1-a22a-462c-8821-61c111100115-attr-2-type" class="er entityLabel">String</text><rect height="22" width="132.1015625" y="46" x="53.6640625" class="er attributeBoxEven"/><text style="dominant-baseline: middle; font-size: 10.2px;" transform="translate(58.6640625,57)" y="0" x="0" id="text-entity-recurrencies-3d9f31a1-a22a-462c-8821-61c111100115-attr-2-name" class="er entityLabel">frequency</text><rect height="22" width="21.5625" y="46" x="185.765625" class="er attributeBoxEven"/><text style="dominant-baseline: middle; font-size: 10.2px;" transform="translate(190.765625,57)" y="0" x="0" id="text-entity-recurrencies-3d9f31a1-a22a-462c-8821-61c111100115-attr-2-key" class="er entityLabel"/><rect height="22" width="46.78125" y="46" x="207.328125" class="er attributeBoxEven"/><text style="dominant-baseline: middle; font-size: 10.2px;" transform="translate(212.328125,57)" y="0" x="0" id="text-entity-recurrencies-3d9f31a1-a22a-462c-8821-61c111100115-attr-2-comment" class="er entityLabel"/><rect height="22" width="53.6640625" y="68" x="0" class="er attributeBoxOdd"/><text style="dominant-baseline: middle; font-size: 10.2px;" transform="translate(5,79)" y="0" x="0" id="text-entity-recurrencies-3d9f31a1-a22a-462c-8821-61c111100115-attr-3-type" class="er entityLabel">Int</text><rect height="22" width="132.1015625" y="68" x="53.6640625" class="er attributeBoxOdd"/><text style="dominant-baseline: middle; font-size: 10.2px;" transform="translate(58.6640625,79)" y="0" x="0" id="text-entity-recurrencies-3d9f31a1-a22a-462c-8821-61c111100115-attr-3-name" class="er entityLabel">repeat_every</text><rect height="22" width="21.5625" y="68" x="185.765625" class="er attributeBoxOdd"/><text style="dominant-baseline: middle; font-size: 10.2px;" transform="translate(190.765625,79)" y="0" x="0" id="text-entity-recurrencies-3d9f31a1-a22a-462c-8821-61c111100115-attr-3-key" class="er entityLabel"/><rect height="22" width="46.78125" y="68" x="207.328125" class="er attributeBoxOdd"/><text style="dominant-baseline: middle; font-size: 10.2px;" transform="translate(212.328125,79)" y="0" x="0" id="text-entity-recurrencies-3d9f31a1-a22a-462c-8821-61c111100115-attr-3-comment" class="er entityLabel"/><rect height="22" width="53.6640625" y="90" x="0" class="er attributeBoxEven"/><text style="dominant-baseline: middle; font-size: 10.2px;" transform="translate(5,101)" y="0" x="0" id="text-entity-recurrencies-3d9f31a1-a22a-462c-8821-61c111100115-attr-4-type" class="er entityLabel">String</text><rect height="22" width="132.1015625" y="90" x="53.6640625" class="er attributeBoxEven"/><text style="dominant-baseline: middle; font-size: 10.2px;" transform="translate(58.6640625,101)" y="0" x="0" id="text-entity-recurrencies-3d9f31a1-a22a-462c-8821-61c111100115-attr-4-name" class="er entityLabel">repeat_when</text><rect height="22" width="21.5625" y="90" x="185.765625" class="er attributeBoxEven"/><text style="dominant-baseline: middle; font-size: 10.2px;" transform="translate(190.765625,101)" y="0" x="0" id="text-entity-recurrencies-3d9f31a1-a22a-462c-8821-61c111100115-attr-4-key" class="er entityLabel"/><rect height="22" width="46.78125" y="90" x="207.328125" class="er attributeBoxEven"/><text style="dominant-baseline: middle; font-size: 10.2px;" transform="translate(212.328125,101)" y="0" x="0" id="text-entity-recurrencies-3d9f31a1-a22a-462c-8821-61c111100115-attr-4-comment" class="er entityLabel">nullable</text><rect height="22" width="53.6640625" y="112" x="0" class="er attributeBoxOdd"/><text style="dominant-baseline: middle; font-size: 10.2px;" transform="translate(5,123)" y="0" x="0" id="text-entity-recurrencies-3d9f31a1-a22a-462c-8821-61c111100115-attr-5-type" class="er entityLabel">DateTime</text><rect height="22" width="132.1015625" y="112" x="53.6640625" class="er attributeBoxOdd"/><text style="dominant-baseline: middle; font-size: 10.2px;" transform="translate(58.6640625,123)" y="0" x="0" id="text-entity-recurrencies-3d9f31a1-a22a-462c-8821-61c111100115-attr-5-name" class="er entityLabel">end_date</text><rect height="22" width="21.5625" y="112" x="185.765625" class="er attributeBoxOdd"/><text style="dominant-baseline: middle; font-size: 10.2px;" transform="translate(190.765625,123)" y="0" x="0" id="text-entity-recurrencies-3d9f31a1-a22a-462c-8821-61c111100115-attr-5-key" class="er entityLabel"/><rect height="22" width="46.78125" y="112" x="207.328125" class="er attributeBoxOdd"/><text style="dominant-baseline: middle; font-size: 10.2px;" transform="translate(212.328125,123)" y="0" x="0" id="text-entity-recurrencies-3d9f31a1-a22a-462c-8821-61c111100115-attr-5-comment" class="er entityLabel">nullable</text><rect height="22" width="53.6640625" y="134" x="0" class="er attributeBoxEven"/><text style="dominant-baseline: middle; font-size: 10.2px;" transform="translate(5,145)" y="0" x="0" id="text-entity-recurrencies-3d9f31a1-a22a-462c-8821-61c111100115-attr-6-type" class="er entityLabel">Int</text><rect height="22" width="132.1015625" y="134" x="53.6640625" class="er attributeBoxEven"/><text style="dominant-baseline: middle; font-size: 10.2px;" transform="translate(58.6640625,145)" y="0" x="0" id="text-entity-recurrencies-3d9f31a1-a22a-462c-8821-61c111100115-attr-6-name" class="er entityLabel">end_after_repeated_times</text><rect height="22" width="21.5625" y="134" x="185.765625" class="er attributeBoxEven"/><text style="dominant-baseline: middle; font-size: 10.2px;" transform="translate(190.765625,145)" y="0" x="0" id="text-entity-recurrencies-3d9f31a1-a22a-462c-8821-61c111100115-attr-6-key" class="er entityLabel"/><rect height="22" width="46.78125" y="134" x="207.328125" class="er attributeBoxEven"/><text style="dominant-baseline: middle; font-size: 10.2px;" transform="translate(212.328125,145)" y="0" x="0" id="text-entity-recurrencies-3d9f31a1-a22a-462c-8821-61c111100115-attr-6-comment" class="er entityLabel">nullable</text><rect height="22" width="53.6640625" y="156" x="0" class="er attributeBoxOdd"/><text style="dominant-baseline: middle; font-size: 10.2px;" transform="translate(5,167)" y="0" x="0" id="text-entity-recurrencies-3d9f31a1-a22a-462c-8821-61c111100115-attr-7-type" class="er entityLabel">Float</text><rect height="22" width="132.1015625" y="156" x="53.6640625" class="er attributeBoxOdd"/><text style="dominant-baseline: middle; font-size: 10.2px;" transform="translate(58.6640625,167)" y="0" x="0" id="text-entity-recurrencies-3d9f31a1-a22a-462c-8821-61c111100115-attr-7-name" class="er entityLabel">medium_value</text><rect height="22" width="21.5625" y="156" x="185.765625" class="er attributeBoxOdd"/><text style="dominant-baseline: middle; font-size: 10.2px;" transform="translate(190.765625,167)" y="0" x="0" id="text-entity-recurrencies-3d9f31a1-a22a-462c-8821-61c111100115-attr-7-key" class="er entityLabel"/><rect height="22" width="46.78125" y="156" x="207.328125" class="er attributeBoxOdd"/><text style="dominant-baseline: middle; font-size: 10.2px;" transform="translate(212.328125,167)" y="0" x="0" id="text-entity-recurrencies-3d9f31a1-a22a-462c-8821-61c111100115-attr-7-comment" class="er entityLabel">nullable</text><rect height="22" width="53.6640625" y="178" x="0" class="er attributeBoxEven"/><text style="dominant-baseline: middle; font-size: 10.2px;" transform="translate(5,189)" y="0" x="0" id="text-entity-recurrencies-3d9f31a1-a22a-462c-8821-61c111100115-attr-8-type" class="er entityLabel">Float</text><rect height="22" width="132.1015625" y="178" x="53.6640625" class="er attributeBoxEven"/><text style="dominant-baseline: middle; font-size: 10.2px;" transform="translate(58.6640625,189)" y="0" x="0" id="text-entity-recurrencies-3d9f31a1-a22a-462c-8821-61c111100115-attr-8-name" class="er entityLabel">medium_tax</text><rect height="22" width="21.5625" y="178" x="185.765625" class="er attributeBoxEven"/><text style="dominant-baseline: middle; font-size: 10.2px;" transform="translate(190.765625,189)" y="0" x="0" id="text-entity-recurrencies-3d9f31a1-a22a-462c-8821-61c111100115-attr-8-key" class="er entityLabel"/><rect height="22" width="46.78125" y="178" x="207.328125" class="er attributeBoxEven"/><text style="dominant-baseline: middle; font-size: 10.2px;" transform="translate(212.328125,189)" y="0" x="0" id="text-entity-recurrencies-3d9f31a1-a22a-462c-8821-61c111100115-attr-8-comment" class="er entityLabel">nullable</text></g><rect height="14" width="23.90625" y="171.34292602539062" x="149.74505615234375" class="er relationshipLabelBox"/><text style="text-anchor: middle; dominant-baseline: middle; font-size: 12px;" y="178.34292602539062" x="161.69818115234375" id="rel1" class="er relationshipLabel">type</text><rect height="14" width="46.59375" y="223.72898864746094" x="263.53143310546875" class="er relationshipLabelBox"/><text style="text-anchor: middle; dominant-baseline: middle; font-size: 12px;" y="230.72898864746094" x="286.82830810546875" id="rel2" class="er relationshipLabel">category</text><rect height="14" width="40.9453125" y="218.17654418945312" x="477.09857177734375" class="er relationshipLabelBox"/><text style="text-anchor: middle; dominant-baseline: middle; font-size: 12px;" y="225.17654418945312" x="497.57122802734375" id="rel3" class="er relationshipLabel">method</text><rect height="14" width="58.625" y="154.9224395751953" x="618.655029296875" class="er relationshipLabelBox"/><text style="text-anchor: middle; dominant-baseline: middle; font-size: 12px;" y="161.9224395751953" x="647.967529296875" id="rel4" class="er relationshipLabel">recurrence</text></svg>